<?xml version="1.0" standalone="no"?>
<!DOCTYPE svg PUBLIC "-//W3C//DTD SVG 20010904//EN"
 "http://www.w3.org/TR/2001/REC-SVG-20010904/DTD/svg10.dtd">
<svg version="1.0" xmlns="http://www.w3.org/2000/svg"
 width="336.000000pt" height="598.000000pt" viewBox="0 0 336.000000 598.000000"
 preserveAspectRatio="xMidYMid meet">

<g transform="translate(0.000000,598.000000) scale(0.100000,-0.100000)"
fill="#000000" stroke="none">
<path d="M1605 4661 c-115 -53 -121 -148 -13 -206 43 -24 64 -28 122 -28 144
0 235 81 192 170 -35 74 -203 109 -301 64z"/>
<path d="M985 4565 c-79 -72 -80 -73 -55 -83 14 -5 51 -22 84 -36 32 -14 65
-26 72 -26 8 0 45 23 82 52 107 82 106 72 16 113 -43 20 -88 40 -99 45 -17 6
-35 -6 -100 -65z"/>
<path d="M2228 4584 c-49 -24 -88 -46 -88 -48 0 -3 33 -32 74 -65 l75 -61 95
37 c53 21 96 41 96 45 0 7 -146 132 -158 135 -4 1 -46 -18 -94 -43z"/>
<path d="M465 4516 c-40 -18 -82 -67 -96 -115 -37 -125 139 -192 244 -93 65
61 75 131 28 184 -24 28 -35 32 -87 35 -36 2 -71 -2 -89 -11z"/>
<path d="M2775 4486 c-48 -21 -70 -53 -70 -101 0 -129 191 -202 278 -105 93
104 -71 266 -208 206z"/>
<path d="M1310 4294 c-235 -17 -511 -64 -650 -113 l-85 -29 570 -1 570 -1 -3
-180 -4 -180 791 0 791 0 0 83 c0 45 3 126 7 180 l6 98 -254 -1 -254 -1 -89
30 c-49 17 -143 42 -210 55 -230 47 -364 58 -761 61 -203 1 -395 1 -425 -1z
m1733 -256 l33 32 23 -24 23 -24 -33 -31 -34 -31 33 -25 c39 -32 39 -38 6 -60
-25 -16 -27 -16 -53 9 -34 32 -42 32 -71 1 -28 -30 -41 -31 -65 -5 -18 20 -18
21 14 54 l32 33 -33 27 -33 27 29 25 29 25 33 -32 34 -33 33 32z m-1128 -8
l29 -30 31 30 c37 35 46 37 70 10 18 -20 18 -21 -14 -54 l-32 -33 33 -25 33
-26 -24 -26 -25 -26 -33 32 -33 32 -35 -34 -35 -34 -25 24 -25 24 32 34 33 34
-33 25 -33 26 22 24 c13 12 25 23 29 23 3 0 19 -14 35 -30z m367 4 l27 -27 37
28 36 28 25 -25 24 -25 -35 -27 -36 -27 36 -31 36 -32 -28 -23 -29 -22 -32 31
-33 32 -34 -33 -34 -33 -26 23 -26 23 32 34 33 34 -33 25 -33 26 22 24 c28 29
37 29 71 -3z m338 1 c13 -14 29 -25 35 -25 6 0 22 11 35 25 28 30 41 31 65 5
18 -20 18 -21 -14 -54 l-32 -33 33 -25 33 -26 -24 -26 -25 -26 -33 32 -33 32
-35 -34 -35 -34 -25 24 -25 24 32 33 33 34 -33 26 -33 25 22 24 c28 30 30 30
59 -1z"/>
<path d="M1011 4001 c-24 -33 -41 -40 -41 -16 0 22 -18 18 -25 -6 -6 -19 -8
-20 -26 -3 -18 16 -19 16 -19 -5 0 -25 -28 -40 -40 -21 -6 9 -9 6 -12 -11 -2
-20 -10 -25 -40 -27 -41 -3 -50 -22 -24 -51 11 -13 12 -24 1 -63 -12 -49 -4
-63 22 -37 14 14 6 -86 -9 -114 -11 -21 -2 -21 46 -2 16 7 17 5 11 -16 -4 -13
-16 -39 -26 -57 -17 -30 -17 -33 -3 -39 9 -3 25 -1 35 6 29 17 25 -18 -7 -64
l-25 -38 30 6 c27 6 31 4 31 -15 0 -11 -15 -39 -33 -62 -19 -23 -40 -53 -48
-67 -8 -15 -42 -56 -76 -93 -56 -61 -65 -67 -102 -68 -43 0 -65 12 -83 46 -10
18 -5 26 40 66 45 41 76 90 55 90 -4 0 -29 -20 -55 -44 -44 -40 -48 -42 -48
-21 0 55 13 88 43 104 51 28 87 62 87 83 0 19 -2 18 -31 -6 -61 -51 -58 -28 8
68 18 27 41 74 50 105 29 101 -11 206 -97 253 -44 23 -162 19 -232 -8 -44 -17
-48 -17 -66 -1 -25 23 -32 21 -32 -7 0 -14 12 -34 29 -48 l28 -24 -23 -28
c-28 -31 -29 -60 -9 -136 8 -30 12 -63 9 -72 -6 -21 -44 -24 -62 -6 -17 17
-16 -31 1 -53 65 -85 157 -1 157 143 l0 68 26 -11 c30 -11 60 -4 87 19 22 19
22 32 -1 32 -41 0 -55 45 -24 73 29 27 77 21 115 -13 40 -35 58 -90 47 -148
-7 -40 -48 -122 -61 -122 -4 0 -11 24 -16 53 -9 50 -9 51 -22 28 -11 -19 -11
-35 -2 -76 11 -48 10 -54 -18 -110 -88 -180 -46 -355 87 -355 17 0 32 -4 32
-10 0 -5 -4 -10 -9 -10 -5 0 -19 -16 -30 -36 -12 -20 -30 -38 -41 -41 -24 -6
-16 -23 10 -23 17 0 17 -3 -7 -46 -21 -38 -30 -45 -52 -42 -22 3 -26 8 -24 31
2 27 1 28 -20 14 -12 -8 -24 -27 -27 -43 -5 -27 -8 -29 -52 -29 -54 0 -59 -7
-24 -30 l24 -16 -24 -25 c-14 -13 -29 -24 -34 -24 -18 0 -10 -19 10 -25 20 -6
19 -8 -11 -46 -23 -29 -27 -39 -15 -39 20 0 20 -11 1 -36 -22 -29 -18 -37 16
-30 28 5 30 4 23 -17 -3 -12 -13 -26 -20 -30 -16 -9 -19 -75 -4 -97 8 -13 10
-12 10 3 0 19 15 23 25 7 3 -5 13 -10 21 -10 18 0 53 -39 54 -59 0 -9 6 -11
18 -6 9 4 25 10 35 12 9 3 17 14 17 25 0 16 3 18 13 10 10 -9 19 -7 36 4 20
15 24 15 42 -2 18 -16 19 -16 19 6 0 13 -7 31 -16 41 -23 26 -2 63 32 55 18
-5 22 -3 18 9 -11 28 -41 37 -82 24 -84 -25 -118 9 -63 63 17 17 31 34 31 38
0 4 14 10 32 14 18 3 45 18 60 33 l28 27 0 -40 c0 -44 15 -79 24 -54 2 8 7 33
11 55 4 21 16 57 28 80 11 22 33 78 48 124 20 65 28 79 33 63 4 -12 23 -40 42
-63 19 -22 34 -47 34 -55 0 -8 5 -14 10 -14 6 0 10 9 10 21 0 12 5 19 13 17
20 -7 57 -81 57 -116 0 -38 -20 -50 -56 -34 -21 10 -24 9 -24 -8 0 -21 25 -50
43 -50 9 0 9 -2 1 -8 -6 -4 -19 -22 -28 -40 l-18 -34 31 7 c36 8 38 1 11 -43
-17 -27 -18 -34 -6 -38 8 -3 24 -1 35 6 20 10 21 8 21 -35 0 -49 1 -50 31 -35
17 9 19 7 19 -17 0 -21 3 -24 12 -15 17 17 68 15 68 -2 0 -7 11 -21 25 -30 23
-15 26 -15 49 5 14 12 22 28 19 38 -3 12 -1 11 11 -4 14 -16 20 -18 36 -7 16
10 21 8 34 -9 l14 -21 7 21 c3 11 1 29 -5 41 -9 16 -8 20 4 20 9 0 20 9 26 20
6 12 16 17 27 13 25 -10 11 20 -15 32 -31 14 -28 51 6 69 23 12 25 15 9 21
-28 12 -82 -4 -107 -30 -62 -66 -101 0 -64 109 10 28 14 62 11 83 -5 26 -3 32
6 25 7 -5 23 -5 37 -1 14 4 20 7 13 8 -7 1 -35 34 -62 75 -48 71 -94 117 -136
139 -28 14 -101 97 -109 125 -6 19 -4 22 21 22 16 0 45 8 66 19 36 18 37 18
43 -1 6 -19 6 -19 21 1 20 29 37 27 18 -3 -8 -13 -13 -31 -9 -40 6 -15 8 -15
24 -1 16 15 18 13 24 -17 l8 -33 10 25 c10 23 11 23 15 5 8 -32 20 -39 32 -16
7 12 18 21 26 21 18 0 19 -12 4 -27 -10 -10 -4 -25 27 -72 2 -1 13 6 25 18 13
12 27 17 33 12 6 -4 23 -11 39 -15 23 -5 29 -3 36 16 5 13 6 29 4 36 -3 7 3
12 15 12 12 0 25 7 30 16 7 13 13 14 31 5 25 -14 27 -4 5 27 -8 12 -24 22 -35
22 -12 0 -19 7 -19 20 0 23 29 27 48 8 9 -9 12 -8 12 6 0 22 -58 76 -82 76
-19 0 -58 -34 -58 -50 0 -25 -40 -7 -61 27 -13 20 -36 52 -53 71 -24 27 -27
35 -15 42 11 7 11 12 1 22 -21 21 -13 27 18 15 29 -11 55 -3 34 11 -6 4 -15
18 -19 30 l-7 24 21 -21 c21 -21 42 -27 54 -15 3 4 0 13 -8 21 -8 8 -15 22
-15 30 0 14 4 12 23 -5 21 -20 57 -30 57 -17 0 3 -8 17 -17 32 -17 25 -17 25
5 19 33 -11 44 1 26 30 -15 22 -15 24 0 18 9 -3 23 -3 33 0 14 6 14 9 -5 27
-12 11 -22 26 -22 34 0 18 27 20 33 3 3 -10 9 -10 28 -1 13 6 32 14 41 17 9 2
21 13 27 24 9 17 7 18 -13 15 -24 -5 -46 24 -27 36 5 3 10 15 12 26 2 11 14
24 27 30 12 5 22 13 22 17 0 11 -46 21 -78 16 -27 -4 -28 -3 -26 39 1 24 7 50
13 57 16 19 -3 30 -28 17 -11 -6 -29 -23 -40 -37 -18 -23 -22 -24 -27 -10 -4
10 -2 28 4 42 10 19 9 24 -3 24 -8 0 -24 -9 -35 -20 -11 -11 -27 -20 -35 -20
-9 0 -20 -12 -25 -26 -11 -29 1 -60 32 -82 33 -23 21 -48 -36 -81 l-55 -31
-30 31 -30 30 24 11 c27 12 33 28 12 28 -8 0 -22 8 -31 19 -16 17 -16 19 0 25
14 5 11 11 -15 38 -19 19 -27 36 -22 41 10 10 -48 67 -68 67 -6 0 -11 6 -11
13 0 7 -6 21 -13 31 -13 18 -15 17 -36 -13z m2 -136 c-3 -9 -8 -14 -10 -11 -3
3 -2 9 2 15 9 16 15 13 8 -4z m-126 -87 c-3 -8 -6 -5 -6 6 -1 11 2 17 5 13 3
-3 4 -12 1 -19z m-447 -1328 c0 -5 -5 -10 -11 -10 -5 0 -7 5 -4 10 3 6 8 10
11 10 2 0 4 -4 4 -10z"/>
<path d="M2477 3463 l-768 -3 3 -145 3 -146 776 -2 777 -2 6 65 c3 36 6 104 6
153 0 77 -2 87 -17 85 -10 -2 -363 -4 -786 -5z m-359 -50 c33 32 40 32 70 7
l23 -19 -33 -31 -33 -30 35 -29 34 -29 -24 -21 c-32 -26 -32 -26 -60 4 -30 32
-37 31 -75 -5 l-31 -30 -24 25 -24 26 32 31 31 32 -32 27 -32 27 24 26 25 26
33 -32 33 -32 28 27z m375 5 l33 32 25 -26 24 -26 -35 -29 -34 -29 34 -29 c35
-29 35 -29 16 -50 -25 -27 -37 -26 -66 4 -13 14 -27 25 -31 25 -5 0 -24 -13
-42 -30 l-34 -29 -24 25 -24 26 35 29 35 30 -34 28 -35 29 30 25 29 26 33 -32
32 -31 33 32z m337 -4 c37 31 38 31 68 6 l23 -19 -33 -31 -33 -30 34 -30 34
-29 -24 -20 c-31 -26 -31 -26 -59 4 -30 32 -37 31 -75 -5 l-31 -30 -24 25 -24
26 32 31 31 32 -32 27 -32 27 24 26 25 26 32 -31 33 -32 31 27z"/>
<path d="M1710 2690 l0 -150 775 0 775 0 0 150 0 150 -775 0 -775 0 0 -150z
m562 73 l28 -27 28 27 c34 33 39 33 69 5 l23 -22 -32 -27 -33 -27 33 -34 32
-34 -28 -21 -29 -21 -31 31 -32 31 -33 -32 -33 -32 -24 25 -24 25 30 31 29 31
-32 27 -33 27 22 22 c29 28 36 28 70 -5z m363 -3 l29 -30 33 32 33 32 25 -24
26 -25 -33 -27 -33 -28 33 -31 c33 -29 33 -31 16 -50 -23 -25 -36 -24 -73 6
l-30 26 -34 -30 -34 -30 -24 25 -24 26 35 28 34 28 -32 27 -33 28 22 23 c12
13 25 24 29 24 3 0 19 -14 35 -30z"/>
<path d="M162 2253 l-22 -4 5 -257 c3 -141 8 -276 11 -298 l5 -42 57 15 c79
21 227 13 312 -16 36 -12 111 -49 167 -83 131 -76 218 -108 304 -108 89 0 155
21 279 90 161 90 240 114 380 114 134 0 201 -19 371 -105 120 -60 226 -89 323
-89 98 0 166 20 303 89 200 100 322 125 463 97 41 -8 82 -17 91 -21 18 -7 22
42 34 443 l5 182 -1533 -1 c-842 -1 -1542 -4 -1555 -6z"/>
<path d="M263 1220 c-23 -5 -54 -17 -69 -26 l-27 -18 6 -111 c9 -167 48 -274
135 -368 105 -113 233 -165 682 -277 278 -69 398 -107 484 -153 86 -46 164
-121 196 -189 l27 -57 13 42 c17 59 125 163 212 205 102 50 191 78 453 143
284 71 477 130 559 171 175 88 276 265 279 488 l2 104 -75 19 c-90 22 -197 17
-280 -11 -30 -11 -110 -47 -177 -80 -154 -76 -241 -97 -367 -89 -113 7 -194
32 -347 107 -246 121 -408 119 -634 -11 -152 -87 -202 -103 -330 -103 -131 0
-186 18 -348 114 -150 89 -285 123 -394 100z"/>
</g>
</svg>
